<svg xmlns="http://www.w3.org/2000/svg" viewBox="0 0 210.81 158.21"><defs><style>.cls-1{fill:#486180;}.cls-2{fill:#69bbd5;}.cls-3{fill:#ba4f45;}</style></defs><title>Asset 4</title><g id="Layer_2" data-name="Layer 2"><g id="Layer_1-2" data-name="Layer 1"><path class="cls-1" d="M205.05,88c-2.28-2.27-4.35-4.89-4.77-6.72-.45-2,.49-5.29,1.39-8.48,1.44-5,3.06-10.76.6-15.87s-8-7.49-12.93-9.53c-3-1.25-6.14-2.55-7.36-4.08s-1.81-4.89-2.37-8.13c-.9-5.2-1.92-11.09-6.4-14.66s-10.41-3.25-15.66-3c-3.3.17-6.71.35-8.51-.52s-3.68-3.57-5.56-6.21C140.39,6.5,136.89,1.59,131.23.3,125.75-.94,120.58,1.9,116,4.4c-2.94,1.61-6,3.28-8.07,3.28S102.82,6,99.88,4.4C95.31,1.9,90.13-.94,84.66.3,79,1.59,75.5,6.5,72.41,10.83c-1.88,2.64-3.83,5.37-5.56,6.21s-5.21.69-8.51.52c-5.25-.27-11.21-.58-15.66,3S37.18,30,36.28,35.2c-.56,3.23-1.14,6.58-2.37,8.13s-4.34,2.82-7.36,4.08c-4.89,2-10.42,4.34-12.93,9.53s-.84,10.82.59,15.87c.91,3.19,1.85,6.49,1.4,8.48-.42,1.83-2.49,4.45-4.77,6.72a28.15,28.15,0,0,0-5.15,6.93,6.23,6.23,0,0,0,5.59,9H204.54a6.24,6.24,0,0,0,5.6-9A27.36,27.36,0,0,0,205.05,88ZM22.63,61.29c.85-1.77,4.52-3.3,7.77-4.65,4.18-1.74,8.5-3.54,11.32-7.07s3.64-8.19,4.42-12.67c.59-3.44,1.27-7.35,2.78-8.55s5.43-1,8.9-.8c4.56.23,9.27.48,13.38-1.51s6.74-5.74,9.35-9.41c2-2.87,4.38-6.13,6.32-6.58,1.78-.4,5.19,1.47,8.2,3.12,3.86,2.11,8.23,4.51,12.87,4.51s9-2.4,12.88-4.51c3-1.65,6.42-3.52,8.2-3.12,1.94.45,4.27,3.71,6.32,6.58,2.61,3.67,5.32,7.46,9.35,9.41s8.83,1.74,13.37,1.51c3.48-.18,7.42-.39,8.91.8s2.19,5.11,2.78,8.55c.78,4.49,1.58,9.12,4.42,12.67s7.14,5.33,11.32,7.07c3.25,1.35,6.92,2.88,7.77,4.65s-.26,5.46-1.21,8.79c-1.25,4.4-2.54,9-1.52,13.43.92,4,3.66,7.33,6.44,10.47h-178c2.78-3.14,5.52-6.43,6.44-10.47,1-4.48-.28-9-1.52-13.43C22.89,66.75,21.82,63,22.63,61.29Z"/><path class="cls-2" d="M51.66,79.44h0a5,5,0,0,1-2-7.06c13-21.28,34.84-34.3,58.22-34.3s45.24,13,58.21,34.3a5,5,0,0,1-2,7.06h0a5,5,0,0,1-6.54-1.79c-11.16-18.35-29.83-29.57-49.71-29.57S69.35,59.3,58.2,77.65A5,5,0,0,1,51.66,79.44Z"/><path class="cls-1" d="M58.37,158.2h0a5.49,5.49,0,0,1-5.49-5.49V126.1h-13v26.61a5.49,5.49,0,0,1-5.49,5.49h0a5.49,5.49,0,0,1-5.49-5.49v-31a5.49,5.49,0,0,1,5.49-5.49H58.37a5.49,5.49,0,0,1,5.49,5.49v31A5.49,5.49,0,0,1,58.37,158.2Z"/><path class="cls-1" d="M96.05,125.8H85.28v5.94h9.51a4.78,4.78,0,0,1,4.77,4.77h0a4.77,4.77,0,0,1-4.77,4.77H85.28v7.38H96.59a4.78,4.78,0,0,1,4.77,4.77h0a4.77,4.77,0,0,1-4.77,4.77H79.37a4.77,4.77,0,0,1-4.77-4.77V121a4.78,4.78,0,0,1,4.77-4.77H96.05a4.78,4.78,0,0,1,4.77,4.77V121A4.77,4.77,0,0,1,96.05,125.8Z"/><path class="cls-2" d="M112.68,158.2h0a4.78,4.78,0,0,1-4.37-6.72l15-33.7a3.55,3.55,0,0,1,3.25-2.12h0a3.57,3.57,0,0,1,3.25,2.11l15,33.7a4.79,4.79,0,0,1-4.37,6.73h0a4.79,4.79,0,0,1-4.38-2.86L126.5,133.6l-9.43,21.72A4.78,4.78,0,0,1,112.68,158.2Z"/><path class="cls-3" d="M126.53,115.66h0a3.57,3.57,0,0,1,3.25,2.11l15,33.7a4.79,4.79,0,0,1-4.38,6.73h0a4.79,4.79,0,0,1-4.38-2.86l-14-31.83a3.57,3.57,0,0,1,0-2.88l1.27-2.85A3.55,3.55,0,0,1,126.53,115.66Z"/><path class="cls-1" d="M164.06,128.74h7.74c20.1,0,20.1,29.4,0,29.46H158.69a5.36,5.36,0,0,1-5.37-5.37V121.57a5.37,5.37,0,0,1,5.37-5.37h0a5.38,5.38,0,0,1,5.37,5.37Zm0,9.66v10.2c2.46,0,5.16.06,7.68,0,6.24-.06,5.88-10.2,0-10.2Z"/><rect class="cls-3" x="74.6" y="131.74" width="24.94" height="9.54" rx="4.77"/><path class="cls-3" d="M170,46.84a22.06,22.06,0,1,1,22.06-22.06A22.08,22.08,0,0,1,170,46.84Zm0-34.11a12.06,12.06,0,1,0,12.06,12.05A12.06,12.06,0,0,0,170,12.73Z"/><path class="cls-3" d="M22.06,74A22.06,22.06,0,1,1,44.11,52,22.08,22.08,0,0,1,22.06,74Zm0-34.11A12.06,12.06,0,1,0,34.11,52,12.07,12.07,0,0,0,22.06,39.93Z"/><rect class="cls-2" x="28.94" y="116.2" width="34.91" height="9.9" rx="4.95"/><path class="cls-3" d="M182.73,133a14.83,14.83,0,0,0-10.94-4.22H158.12a4.81,4.81,0,0,0-4.81,4.8v0a4.82,4.82,0,0,0,4.81,4.81h13.61c5.82,0,6.23,9.93.19,10.19h-13.8a4.81,4.81,0,0,0-4.81,4.8h0a4.82,4.82,0,0,0,4.81,4.81h13.67A14.84,14.84,0,0,0,182.73,154,15.39,15.39,0,0,0,182.73,133Z"/></g></g></svg>